<?xml version="1.0" encoding="UTF-8"?>
<svg viewBox="0 0 553.75 471.25" xmlns="http://www.w3.org/2000/svg">
 <g transform="matrix(1.25,0,0,-1.25,0,471.25)">
  <g transform="scale(.24)">
   <path d="m6.043 216.67h333.54v339.48h331.4v341.77h336.62v335.41h334.33v333.23h496.41v-170.02h-330.01v-334.49h-334.71v-339.2h-334.04v-337.43h-335.41v-340.3h-498.13v171.55"/>
   <path d="m1501.2 575.36h-294.97c-81.25 0-84.37-125 0-125h151.2l-287.56-287.55c-63.74-63.75 26.42-155.99 94.15-88.27l283.26 284.05v-149.65c-0.42-81.25 125.62-84.375 125.81 0v293.14c0 43.75-29.36 73.277-71.89 73.277"/>
  </g>
 </g>
</svg>
